<svg width="354" height="308" viewBox="0 0 354 308" fill="none" xmlns="http://www.w3.org/2000/svg">
<g clip-path="url(#clip0)">
<path d="M354 304.182L100.59 308L0 290.182H157.035L354 304.182Z" fill="#E6E6E6"/>
<path d="M291.815 81.0303C314.203 81.0303 332.352 62.891 332.352 40.5151C332.352 18.1392 314.203 0 291.815 0C269.427 0 251.278 18.1392 251.278 40.5151C251.278 62.891 269.427 81.0303 291.815 81.0303Z" fill="#FF6584"/>
<path d="M71.7115 292.299C71.7115 292.299 72.3044 279.882 84.46 281.325L71.7115 292.299Z" fill="#3F3D56"/>
<path d="M68.2769 280.482C71.6369 280.482 74.3607 277.76 74.3607 274.402C74.3607 271.044 71.6369 268.321 68.2769 268.321C64.9169 268.321 62.1931 271.044 62.1931 274.402C62.1931 277.76 64.9169 280.482 68.2769 280.482Z" fill="#22007C"/>
<path d="M69.0043 284.641H67.287V296.656H69.0043V284.641Z" fill="#3F3D56"/>
<path d="M272.062 294.421C272.062 294.421 272.655 282.003 284.811 283.446L272.062 294.421Z" fill="#3F3D56"/>
<path d="M268.628 282.603C271.988 282.603 274.712 279.881 274.712 276.523C274.712 273.165 271.988 270.443 268.628 270.443C265.268 270.443 262.544 273.165 262.544 276.523C262.544 279.881 265.268 282.603 268.628 282.603Z" fill="#22007C"/>
<path d="M269.355 286.762H267.638V298.777H269.355V286.762Z" fill="#3F3D56"/>
<path d="M301.351 296.542C301.351 296.542 301.944 284.124 314.1 285.567L301.351 296.542Z" fill="#3F3D56"/>
<path d="M297.916 284.725C301.276 284.725 304 282.002 304 278.644C304 275.286 301.276 272.564 297.916 272.564C294.556 272.564 291.833 275.286 291.833 278.644C291.833 282.002 294.556 284.725 297.916 284.725Z" fill="#22007C"/>
<path d="M298.644 288.883H296.927V300.898H298.644V288.883Z" fill="#3F3D56"/>
<path d="M119.677 286.36C119.677 286.36 120.27 273.942 132.425 275.386L119.677 286.36Z" fill="#3F3D56"/>
<path d="M116.242 274.543C119.602 274.543 122.326 271.821 122.326 268.462C122.326 265.104 119.602 262.382 116.242 262.382C112.882 262.382 110.158 265.104 110.158 268.462C110.158 271.821 112.882 274.543 116.242 274.543Z" fill="#22007C"/>
<path d="M116.97 278.702H115.252V290.716H116.97V278.702Z" fill="#3F3D56"/>
<path d="M29.2643 288.481C29.2643 288.481 29.8572 276.063 42.0128 277.507L29.2643 288.481Z" fill="#3F3D56"/>
<path d="M25.8296 276.664C29.1896 276.664 31.9134 273.942 31.9134 270.584C31.9134 267.225 29.1896 264.503 25.8296 264.503C22.4697 264.503 19.7458 267.225 19.7458 270.584C19.7458 273.942 22.4697 276.664 25.8296 276.664Z" fill="#22007C"/>
<path d="M26.557 280.823H24.8397V292.837H26.557V280.823Z" fill="#3F3D56"/>
<path d="M176.358 266.903C212.966 266.903 242.642 237.243 242.642 200.655C242.642 164.067 212.966 134.407 176.358 134.407C139.751 134.407 110.075 164.067 110.075 200.655C110.075 237.243 139.751 266.903 176.358 266.903Z" fill="#3F3D56"/>
<path d="M134.629 205.973C136.275 204.003 138.334 202.419 140.66 201.332C142.986 200.244 145.522 199.681 148.09 199.681C150.658 199.681 153.195 200.244 155.521 201.332C157.847 202.419 159.906 204.003 161.552 205.973C164.369 203.285 166.316 199.816 167.142 196.013C167.968 192.209 167.635 188.245 166.187 184.632C164.738 181.019 162.24 177.923 159.015 175.742C155.79 173.56 151.985 172.395 148.09 172.395C144.196 172.395 140.391 173.56 137.166 175.742C133.94 177.923 131.442 181.019 129.994 184.632C128.545 188.245 128.213 192.209 129.039 196.013C129.865 199.816 131.812 203.285 134.629 205.973Z" fill="white"/>
<path d="M187.266 205.973C188.912 204.003 190.971 202.419 193.297 201.332C195.623 200.244 198.159 199.681 200.727 199.681C203.295 199.681 205.832 200.244 208.158 201.332C210.484 202.419 212.543 204.003 214.189 205.973C217.006 203.285 218.953 199.816 219.779 196.013C220.605 192.209 220.272 188.245 218.824 184.632C217.375 181.019 214.877 177.923 211.652 175.742C208.427 173.56 204.622 172.395 200.727 172.395C196.833 172.395 193.028 173.56 189.802 175.742C186.577 177.923 184.079 181.019 182.631 184.632C181.182 188.245 180.85 192.209 181.676 196.013C182.502 199.816 184.449 203.285 187.266 205.973Z" fill="white"/>
<path d="M141.44 191.947C145.144 191.947 148.146 188.946 148.146 185.245C148.146 181.543 145.144 178.542 141.44 178.542C137.736 178.542 134.734 181.543 134.734 185.245C134.734 188.946 137.736 191.947 141.44 191.947Z" fill="#3F3D56"/>
<path d="M194.075 191.947C197.779 191.947 200.781 188.946 200.781 185.245C200.781 181.543 197.779 178.542 194.075 178.542C190.371 178.542 187.369 181.543 187.369 185.245C187.369 188.946 190.371 191.947 194.075 191.947Z" fill="#3F3D56"/>
<path d="M128.595 225.011C132.902 225.011 136.393 221.521 136.393 217.217C136.393 212.913 132.902 209.423 128.595 209.423C124.288 209.423 120.797 212.913 120.797 217.217C120.797 221.521 124.288 225.011 128.595 225.011Z" fill="#FF6584"/>
<path d="M218.273 225.011C222.58 225.011 226.071 221.521 226.071 217.217C226.071 212.913 222.58 209.423 218.273 209.423C213.966 209.423 210.475 212.913 210.475 217.217C210.475 221.521 213.966 225.011 218.273 225.011Z" fill="#FF6584"/>
<path d="M173.434 201.629L167.585 226.959L177.333 217.217L173.434 201.629Z" fill="#FF6584"/>
<path d="M203.485 299.053L196.845 293.483L197 299.053H194.938L194.773 293.163L185.808 299.053H182.055L194.706 290.742L194.216 273.29L193.85 260.11L195.907 260.054L196.278 273.29L196.768 290.726L206.692 299.053H203.485Z" fill="#3F3D56"/>
<path d="M172.291 299.053L165.651 293.483L165.805 299.053H163.749L163.584 293.163L154.618 299.053H150.865L163.511 290.742L163.022 273.29L162.656 260.11L164.718 260.054L165.089 273.29L165.573 290.726L175.497 299.053H172.291Z" fill="#3F3D56"/>
<path d="M177.333 129.536C175.514 129.536 173.91 130.948 172.837 133.117C171.892 129.856 169.905 127.588 167.585 127.588C167.428 127.603 167.271 127.63 167.117 127.666C166.226 124.184 164.153 121.742 161.737 121.742C158.507 121.742 155.888 126.104 155.888 131.485C155.888 136.865 158.507 141.227 161.737 141.227C161.895 141.211 162.051 141.185 162.205 141.148C163.097 144.63 165.169 147.072 167.585 147.072C169.404 147.072 171.009 145.66 172.081 143.492C173.027 146.753 175.013 149.021 177.333 149.021C180.563 149.021 183.182 144.659 183.182 139.279C183.182 133.898 180.563 129.536 177.333 129.536Z" fill="#3F3D56"/>
<path d="M114.143 225.76C111.582 225.76 109.047 225.256 106.682 224.277C104.317 223.298 102.168 221.863 100.357 220.053C98.5471 218.244 97.1111 216.096 96.1314 213.732C95.1516 211.368 94.6474 208.834 94.6474 206.275V196.533C94.6474 191.365 96.7013 186.41 100.357 182.755C104.013 179.101 108.972 177.049 114.143 177.049V225.76Z" fill="#22007C"/>
<path d="M238.574 177.049C241.134 177.049 243.669 177.553 246.035 178.532C248.4 179.511 250.549 180.946 252.359 182.755C254.17 184.565 255.606 186.713 256.585 189.077C257.565 191.441 258.069 193.974 258.069 196.533V206.275C258.069 208.834 257.565 211.368 256.585 213.732C255.606 216.096 254.17 218.244 252.359 220.053C250.549 221.862 248.4 223.298 246.035 224.277C243.669 225.256 241.134 225.76 238.574 225.76V177.049H238.574Z" fill="#22007C"/>
<path d="M248.79 198.064H245.697C245.697 158.857 213.782 126.96 174.554 126.96C135.326 126.96 103.411 158.857 103.411 198.064H100.318C100.318 157.152 133.62 123.868 174.554 123.868C215.488 123.868 248.79 157.152 248.79 198.064Z" fill="#22007C"/>
<path d="M68.4046 138.48L68.4052 138.479L66.952 137.874L60.8206 135.284L58.6228 134.355L58.4542 134.781L55.5019 142.231L63.8106 145.746L63.8542 145.785L63.2943 147.105C63.2176 147.225 63.1523 147.353 63.0989 147.485C62.7067 148.475 63.4475 149.46 64.1478 149.737C64.8481 150.014 65.7337 149.436 66.1259 148.447C66.5128 147.47 66.1347 146.23 65.4523 145.93L65.4529 145.929L63.9997 145.324L59.0286 143.393L61.869 136.225L61.448 136.059L58.6066 143.229L57.9919 142.99L60.8444 135.792L60.9196 135.824L66.7629 138.295L66.8065 138.335L66.2466 139.654C66.17 139.775 66.1046 139.903 66.0513 140.035C65.659 141.025 66.3998 142.01 67.1001 142.287C67.8003 142.564 68.686 141.986 69.0782 140.996C69.4651 140.02 69.087 138.78 68.4046 138.48Z" fill="#3F3D56"/>
<path d="M97.1625 156.771C94.1464 155.047 94.7499 151.265 94.7499 151.265C94.674 148.808 92.6429 149.156 92.6429 149.156L91.9037 149.324C91.5603 149.165 91.1822 149.095 90.8045 149.121L89.68 149.31C92.2405 149.911 92.0301 152.052 92.0301 152.052L92.3889 154.555L85.6796 151.85L86.4499 150.035C86.5564 149.867 86.6472 149.69 86.7212 149.506C87.266 148.131 86.2371 146.764 85.2645 146.379C84.2919 145.994 83.0618 146.796 82.517 148.171C81.9797 149.527 82.5048 151.25 83.4526 151.666L83.4518 151.667L85.4701 152.507L85.4852 152.46L97.1625 156.771ZM93.7554 152.372L93.9706 154.768C93.2109 153.703 92.854 152.403 92.9634 151.099C92.9456 150.635 92.7891 150.188 92.5141 149.814C92.9368 150.085 93.2765 150.467 93.4956 150.918C93.7146 151.37 93.8046 151.873 93.7554 152.372V152.372Z" fill="#3F3D56"/>
<path d="M45.9835 121.336L45.9843 121.335L43.966 120.495L35.5306 117.217L37.6597 115.324C38.0762 114.769 38.6912 114.397 39.3762 114.285C40.0612 114.172 40.763 114.329 41.3349 114.722L40.6742 113.741C40.6742 113.741 39.4322 112.098 37.6935 113.836C37.6935 113.836 35.5424 117.006 32.1634 116.198L43.7033 121.08L43.7639 121.135L42.9863 122.967C42.8798 123.135 42.789 123.312 42.7149 123.496C42.1702 124.871 43.1991 126.238 44.1717 126.623C45.1443 127.008 46.3744 126.206 46.9192 124.831C47.4564 123.475 46.9313 121.753 45.9835 121.336Z" fill="#3F3D56"/>
<path d="M76.8656 110.61L76.0879 112.442C75.9815 112.61 75.8907 112.787 75.8166 112.971C75.2718 114.346 76.3007 115.713 77.2733 116.098C78.2459 116.483 79.4761 115.681 80.0208 114.306C80.5581 112.951 80.033 111.228 79.0852 110.812L79.086 110.81L77.0677 109.97L70.1633 107.287L74.1083 97.3321L73.5236 97.1007L69.5771 107.06L68.7234 106.728L72.6852 96.7301L72.7896 96.7743L80.9054 100.207L80.966 100.262L80.1884 102.095C80.0819 102.262 79.9911 102.44 79.9171 102.624C79.3723 103.998 80.4012 105.366 81.3738 105.751C82.3464 106.136 83.5765 105.334 84.1212 103.959C84.6586 102.603 84.1335 100.88 83.1857 100.464L83.1865 100.462L81.1682 99.6224L72.9201 96.1375L72.9197 96.1374L72.6522 96.0243L69.5997 94.7347L65.265 105.673L76.805 110.555L76.8656 110.61Z" fill="#3F3D56"/>
<path d="M40.2952 54.588L40.2966 54.5852L36.8222 53.1391L22.3012 47.4974L25.9662 44.2384C25.9662 44.2384 28.404 40.8577 32.2928 43.2026L31.1556 41.5132C31.1556 41.5132 29.0174 38.684 26.0246 41.6773C26.0246 41.6773 22.3214 47.1336 16.5046 45.7428L36.37 54.1462L36.4743 54.2407L35.1356 57.3953C34.9524 57.6839 34.796 57.9887 34.6685 58.3058C33.7308 60.6723 35.5019 63.0262 37.1762 63.689C38.8505 64.3517 40.9681 62.9706 41.9059 60.6041C42.8308 58.2699 41.9268 55.3046 40.2952 54.588Z" fill="#3F3D56"/>
<path d="M50.9578 101.979C43.7464 97.8585 45.1895 88.8156 45.1895 88.8156C45.0081 82.9409 40.1518 83.7725 40.1518 83.7725L38.3843 84.1756C37.5633 83.7947 36.6592 83.6276 35.7562 83.6898L33.0676 84.142C39.1897 85.5796 38.6867 90.6982 38.6867 90.6982L39.5444 96.683L23.503 90.2153L25.3448 85.8749C25.5994 85.4741 25.8165 85.0508 25.9936 84.6103C27.296 81.3235 24.8361 78.0542 22.5107 77.1337C20.1852 76.2131 17.2442 78.1314 15.9417 81.4182C14.657 84.6601 15.9125 88.7788 18.1786 89.7739L18.1767 89.7778L23.0023 91.7863L23.0382 91.6726L50.9578 101.979ZM42.8117 91.4635L43.3279 97.2119C40.2991 93.1935 40.9182 88.4193 40.9182 88.4193C40.8755 87.3106 40.5013 86.2401 39.8439 85.3461C43.3231 87.427 42.8117 91.4635 42.8117 91.4635H42.8117Z" fill="#3F3D56"/>
</g>
<defs>
<clipPath id="clip0">
<rect width="354" height="308" fill="white"/>
</clipPath>
</defs>
</svg>
