<svg width="62" height="62" viewBox="0 0 62 62" fill="none" xmlns="http://www.w3.org/2000/svg">
<path d="M55.9453 5.57031H6.05469C2.71613 5.57031 0 8.28645 0 11.625V50.375C0 53.7136 2.71613 56.4297 6.05469 56.4297H55.9453C59.2839 56.4297 62 53.7136 62 50.375V11.625C62 8.28645 59.2839 5.57031 55.9453 5.57031ZM59.5781 50.375C59.5781 52.3781 57.9484 54.0078 55.9453 54.0078H6.05469C4.05155 54.0078 2.42188 52.3781 2.42188 50.375V11.625C2.42188 9.62187 4.05155 7.99219 6.05469 7.99219H55.9453C57.9484 7.99219 59.5781 9.62187 59.5781 11.625V50.375Z" fill="white"/>
<path d="M25.3691 29.7284C24.7022 29.7284 24.1582 30.2723 24.1582 30.9393C24.1582 31.6063 24.7022 32.1503 25.3691 32.1503C26.0361 32.1503 26.5801 31.6063 26.5801 30.9393C26.5801 30.2725 26.0361 29.7284 25.3691 29.7284Z" fill="white"/>
<path d="M51.7594 11.3903C49.7562 11.3903 48.1265 13.02 48.1265 15.0231C48.1265 16.3239 48.8142 17.4667 49.8446 18.1085L47.1709 30.3273L45.9539 31.0299C45.954 30.9998 45.955 30.9697 45.955 30.9396C45.955 19.5884 36.7201 10.3535 25.369 10.3535C14.0179 10.3535 4.78308 19.5884 4.78308 30.9396C4.78308 42.2907 14.0179 51.5255 25.369 51.5255C35.6964 51.5255 44.2709 43.881 45.7337 33.9535L48.8447 32.1573C49.1399 31.987 49.3493 31.7003 49.4222 31.3675L52.2102 18.627C54.0012 18.4041 55.3922 16.8734 55.3922 15.0231C55.3922 13.02 53.7625 11.3903 51.7594 11.3903ZM43.4685 32.4648L35.3962 37.1253C34.4567 36.4344 33.1586 36.32 32.0859 36.9392L28.9398 38.7556C28.2412 39.1588 27.7411 39.8119 27.5314 40.5944C27.3217 41.3769 27.4283 42.1926 27.8317 42.891C28.3918 43.8611 29.4115 44.404 30.4585 44.404C30.9717 44.404 31.4915 44.2736 31.9671 43.9991L35.1131 42.1826C36.186 41.5632 36.7357 40.3817 36.607 39.2227L42.934 35.5698C40.8817 43.3499 33.785 49.1035 25.3691 49.1035C15.3535 49.1035 7.20508 40.9551 7.20508 30.9395C7.20508 20.9237 15.3535 12.7753 25.3691 12.7753C35.3848 12.7753 43.5332 20.9237 43.5332 30.9395C43.5332 31.4531 43.5107 31.9617 43.4685 32.4648ZM33.9024 40.0852L30.7564 41.9016C30.4725 42.0654 30.0933 41.9643 29.9292 41.68C29.8214 41.4934 29.8463 41.3125 29.8709 41.2212C29.8953 41.1299 29.9642 40.9608 30.151 40.8529L33.297 39.0365C33.3895 38.9832 33.492 38.9579 33.594 38.9579C33.805 38.9579 34.0134 39.0665 34.1241 39.2581C34.2881 39.5423 34.1866 39.9211 33.9024 40.0852ZM51.7594 16.2341C51.0916 16.2341 50.5484 15.6908 50.5484 15.0231C50.5484 14.3554 51.0916 13.8122 51.7594 13.8122C52.4271 13.8122 52.9703 14.3554 52.9703 15.0231C52.9703 15.6908 52.4271 16.2341 51.7594 16.2341Z" fill="white"/>
<path d="M33.2402 17.3062C30.8503 15.9266 28.1285 15.1973 25.3691 15.1973C19.763 15.1973 14.539 18.2132 11.7359 23.0684C11.4014 23.6476 11.5999 24.388 12.1791 24.7225C12.3698 24.8326 12.578 24.885 12.7834 24.885C13.2019 24.885 13.6089 24.6678 13.8332 24.2793C16.2051 20.1711 20.6254 17.6191 25.3691 17.6191C27.7041 17.6191 30.0071 18.2362 32.0293 19.4036C32.6087 19.738 33.3492 19.5396 33.6834 18.9604C34.0179 18.3812 33.8193 17.6406 33.2402 17.3062Z" fill="white"/>
<path d="M28.1898 20.4123C27.2703 20.166 26.3213 20.041 25.3691 20.041C23.8366 20.041 22.3492 20.3563 20.9485 20.9778C20.3372 21.249 20.0616 21.9646 20.3328 22.5759C20.5333 23.0276 20.9762 23.2958 21.4404 23.2958C21.6043 23.2958 21.7712 23.2624 21.9309 23.1915C23.0204 22.708 24.1772 22.4628 25.3691 22.4628C26.1097 22.4628 26.8478 22.56 27.563 22.7516C28.2088 22.9249 28.873 22.5414 29.046 21.8953C29.2192 21.2494 28.8358 20.5855 28.1898 20.4123Z" fill="white"/>
<path d="M19.3888 23.2196C18.9158 22.7469 18.1493 22.7469 17.6761 23.2196L17.6627 23.2331C17.1898 23.7059 17.1898 24.4727 17.6627 24.9457C17.8992 25.1821 18.2091 25.3004 18.519 25.3004C18.8288 25.3004 19.1387 25.1821 19.3752 24.9457L19.3888 24.9322C19.8616 24.4594 19.8616 23.6926 19.3888 23.2196Z" fill="white"/>
<path d="M25.3691 24.8848C22.0306 24.8848 19.3145 27.6009 19.3145 30.9395C19.3145 34.2779 22.0306 36.994 25.3691 36.994C28.7077 36.994 31.4238 34.2779 31.4238 30.9395C31.4238 27.6009 28.7077 24.8848 25.3691 24.8848ZM25.3691 34.5721C23.366 34.5721 21.7363 32.9426 21.7363 30.9395C21.7363 28.9363 23.366 27.3066 25.3691 27.3066C27.3723 27.3066 29.002 28.9363 29.002 30.9395C29.002 32.9426 27.3723 34.5721 25.3691 34.5721Z" fill="white"/>
<path d="M56.0664 44.5625H51.1016C50.4329 44.5625 49.8906 45.1048 49.8906 45.7734C49.8906 46.4421 50.4329 46.9844 51.1016 46.9844H56.0664C56.7351 46.9844 57.2773 46.4421 57.2773 45.7734C57.2773 45.1048 56.7351 44.5625 56.0664 44.5625Z" fill="white"/>
<path d="M56.0664 49.043H51.1016C50.4329 49.043 49.8906 49.5852 49.8906 50.2539C49.8906 50.9226 50.4329 51.4648 51.1016 51.4648H56.0664C56.7351 51.4648 57.2773 50.9226 57.2773 50.2539C57.2773 49.5852 56.7351 49.043 56.0664 49.043Z" fill="white"/>
<path d="M56.0664 40.082H51.1016C50.4329 40.082 49.8906 40.6243 49.8906 41.293C49.8906 41.9616 50.4329 42.5039 51.1016 42.5039H56.0664C56.7351 42.5039 57.2773 41.9616 57.2773 41.293C57.2773 40.6243 56.7351 40.082 56.0664 40.082Z" fill="white"/>
</svg>
