<svg width="32" height="32" viewBox="0 0 32 32" fill="none" xmlns="http://www.w3.org/2000/svg">
<path d="M16 0C7.17756 0 0 7.17756 0 16C0 24.8224 7.17756 32 16 32C24.8224 32 32 24.8224 32 16C32 7.17756 24.8224 0 16 0ZM16 30.125C8.21144 30.125 1.875 23.7886 1.875 16C1.875 8.21144 8.21144 1.875 16 1.875C23.7886 1.875 30.125 8.21144 30.125 16C30.125 23.7886 23.7886 30.125 16 30.125Z" fill="black"/>
<path d="M16 16.875C19.6186 16.875 22.5625 13.9311 22.5625 10.3125C22.5625 6.69394 19.6186 3.75 16 3.75C12.3814 3.75 9.4375 6.69394 9.4375 10.3125C9.4375 13.9311 12.3814 16.875 16 16.875ZM16 5.625C18.5847 5.625 20.6875 7.72781 20.6875 10.3125C20.6875 12.8972 18.5847 15 16 15C13.4153 15 11.3125 12.8972 11.3125 10.3125C11.3125 7.72781 13.4153 5.625 16 5.625Z" fill="black"/>
<path d="M26.5406 20.9652C25.2948 19.5574 23.5031 18.75 21.625 18.75H10.375C8.49695 18.75 6.70526 19.5574 5.45945 20.9652L5.01508 21.4674L5.3467 22.0502C7.52276 25.8744 11.6049 28.25 16 28.25C20.3951 28.25 24.4773 25.8744 26.6534 22.0501L26.985 21.4673L26.5406 20.9652ZM16 26.375C12.5165 26.375 9.26495 24.6127 7.35108 21.7316C8.19183 21.0221 9.26226 20.625 10.375 20.625H21.625C22.7378 20.625 23.8082 21.0221 24.6489 21.7316C22.7351 24.6127 19.4835 26.375 16 26.375Z" fill="black"/>
</svg>
